<svg width="227" height="64" viewBox="0 0 227 64" fill="none" xmlns="http://www.w3.org/2000/svg">
<path d="M51.7308 50.2854L37.3355 25.1999V11.3171H39.2023C39.6974 11.3171 40.1723 11.1115 40.5223 10.7456C40.8724 10.3796 41.0691 9.88334 41.0691 9.36585C41.0691 8.84835 40.8724 8.35206 40.5223 7.98613C40.1723 7.62021 39.6974 7.41463 39.2023 7.41463H20.5345C20.0395 7.41463 19.5646 7.62021 19.2145 7.98613C18.8644 8.35206 18.6678 8.84835 18.6678 9.36585C18.6678 9.88334 18.8644 10.3796 19.2145 10.7456C19.5646 11.1115 20.0395 11.3171 20.5345 11.3171H22.4013V25.1999L8.00613 50.2854C7.66661 50.877 7.48324 51.5522 7.47465 52.2419C7.46608 52.9317 7.63261 53.6117 7.95729 54.2124C8.28198 54.813 8.75321 55.313 9.32295 55.6613C9.89271 56.0095 10.5406 56.1937 11.2006 56.1951H48.5362C49.1969 56.1951 49.8456 56.0119 50.4164 55.6641C50.987 55.3163 51.4592 54.8165 51.7848 54.2155C52.1104 53.6147 52.2775 52.9342 52.2691 52.2438C52.2609 51.5534 52.0775 50.8775 51.7378 50.2854H51.7308ZM30.7108 39.8195C26.9982 37.8562 23.4654 36.8147 20.1588 36.6951L25.8689 26.7439C26.0435 26.4414 26.1355 26.0947 26.1349 25.7414V11.3171H33.602V25.7414C33.6014 26.0947 33.6934 26.4414 33.8679 26.7439L42.7865 42.2928C39.9957 42.8634 36.0031 42.6195 30.7108 39.8195Z" fill="#7C3AED"/>
<path d="M74.5371 48.9897C71.9245 48.9897 69.4872 48.5401 67.2253 47.641C64.995 46.7418 63.0516 45.4764 61.3948 43.8447C59.7702 42.213 58.4957 40.2981 57.5718 38.1003C56.6797 35.9024 56.2337 33.5048 56.2337 30.9073C56.2337 28.3098 56.6797 25.9122 57.5718 23.7143C58.4957 21.5165 59.786 19.6016 61.4428 17.9699C63.0994 16.3383 65.0428 15.0728 67.2731 14.1737C69.5032 13.2745 71.9245 12.825 74.5371 12.825C77.1814 12.825 79.6026 13.2745 81.8011 14.1737C84.0312 15.0728 85.9588 16.3383 87.5836 17.9699C89.2403 19.5684 90.5306 21.4665 91.4546 23.6644C92.3784 25.8622 92.8405 28.2766 92.8405 30.9073C92.8405 33.5048 92.3784 35.9191 91.4546 38.1502C90.5306 40.3481 89.2403 42.2629 87.5836 43.8946C85.9588 45.4931 84.0312 46.7418 81.8011 47.641C79.6026 48.5401 77.1814 48.9897 74.5371 48.9897ZM85.4809 56.4324C84.1746 56.4324 82.9321 56.2825 81.7533 55.9828C80.6064 55.6831 79.4594 55.2003 78.3125 54.5342C77.1973 53.8682 76.0186 52.969 74.7761 51.8369C73.5653 50.7047 72.2432 49.3061 70.8095 47.641L78.9336 45.4931C79.7939 46.7251 80.5904 47.7076 81.3232 48.4402C82.0559 49.1728 82.7569 49.689 83.4259 49.9887C84.1268 50.2884 84.8596 50.4382 85.6243 50.4382C87.6632 50.4382 89.4792 49.5724 91.0723 47.8408L94.5131 52.1366C92.251 55.0005 89.2403 56.4324 85.4809 56.4324ZM74.5371 42.0964C76.0344 42.0964 77.4045 41.8299 78.647 41.2972C79.9213 40.7644 81.0365 39.9984 81.9923 38.9994C82.9481 38.0004 83.6807 36.8183 84.1906 35.4529C84.7321 34.0542 85.003 32.539 85.003 30.9073C85.003 29.2422 84.7321 27.7271 84.1906 26.3618C83.6807 24.9964 82.9481 23.8142 81.9923 22.8152C81.0365 21.8162 79.9213 21.0502 78.647 20.5175C77.4045 19.9847 76.0344 19.7182 74.5371 19.7182C73.0396 19.7182 71.6538 19.9847 70.3794 20.5175C69.1049 21.0502 67.9899 21.8162 67.0342 22.8152C66.1102 23.8142 65.3774 24.9964 64.8358 26.3618C64.326 27.7271 64.0712 29.2422 64.0712 30.9073C64.0712 32.539 64.326 34.0542 64.8358 35.4529C65.3774 36.8183 66.1102 38.0004 67.0342 38.9994C67.9899 39.9984 69.1049 40.7644 70.3794 41.2972C71.6538 41.8299 73.0396 42.0964 74.5371 42.0964ZM108.981 48.7898C106.847 48.7898 104.935 48.357 103.247 47.4911C101.59 46.6252 100.3 45.31 99.3757 43.545C98.4517 41.7467 97.9898 39.4657 97.9898 36.7017V21.5165H105.445V35.5528C105.445 37.7839 105.891 39.4323 106.783 40.4979C107.707 41.5302 108.997 42.0464 110.654 42.0464C111.801 42.0464 112.82 41.7967 113.713 41.2972C114.605 40.7644 115.305 39.9652 115.815 38.8995C116.325 37.8006 116.58 36.4352 116.58 34.8035V21.5165H124.035V48.3902H116.962V40.9975L118.253 43.1454C117.392 45.0103 116.118 46.4254 114.429 47.3912C112.773 48.3236 110.957 48.7898 108.981 48.7898ZM130.942 48.3902V21.5165H138.397V48.3902H130.942ZM134.669 17.7701C133.299 17.7701 132.184 17.3538 131.324 16.5214C130.464 15.6889 130.034 14.6565 130.034 13.4244C130.034 12.1923 130.464 11.1599 131.324 10.3274C132.184 9.49489 133.299 9.07863 134.669 9.07863C136.039 9.07863 137.154 9.47824 138.015 10.2775C138.875 11.0434 139.305 12.0424 139.305 13.2745C139.305 14.5733 138.875 15.6555 138.015 16.5214C137.186 17.3538 136.071 17.7701 134.669 17.7701Z" fill="white"/>
<path d="M160.513 48.7899C158.346 48.7899 156.451 48.2903 154.826 47.2913C153.201 46.2923 151.927 44.7771 151.003 42.7458C150.111 40.6811 149.665 38.0836 149.665 34.9534C149.665 31.7897 150.095 29.1923 150.955 27.161C151.815 25.1297 153.058 23.6144 154.683 22.6154C156.307 21.6164 158.25 21.1169 160.513 21.1169C162.934 21.1169 165.101 21.6996 167.012 22.8652C168.955 23.9974 170.484 25.5958 171.6 27.6605C172.747 29.7252 173.32 32.1561 173.32 34.9534C173.32 37.7839 172.747 40.2315 171.6 42.2962C170.484 44.3609 168.955 45.9593 167.012 47.0915C165.101 48.2237 162.934 48.7899 160.513 48.7899ZM145.316 58.0808V21.5165H152.436V27.0111L152.293 35.0033L152.771 42.9456V58.0808H145.316ZM159.223 42.3961C160.465 42.3961 161.564 42.0964 162.52 41.497C163.507 40.8976 164.288 40.0484 164.862 38.9495C165.467 37.8173 165.77 36.4852 165.77 34.9534C165.77 33.3882 165.467 32.0562 164.862 30.9573C164.288 29.8583 163.507 29.0092 162.52 28.4098C161.564 27.8103 160.465 27.5106 159.223 27.5106C157.98 27.5106 156.864 27.8103 155.877 28.4098C154.89 29.0092 154.109 29.8583 153.536 30.9573C152.962 32.0562 152.675 33.3882 152.675 34.9534C152.675 36.4852 152.962 37.8173 153.536 38.9495C154.109 40.0484 154.89 40.8976 155.877 41.497C156.864 42.0964 157.98 42.3961 159.223 42.3961ZM178.312 48.3902V21.5165H185.432V29.1091L184.429 26.9112C185.193 25.0131 186.419 23.5812 188.108 22.6154C189.796 21.6164 191.851 21.1169 194.273 21.1169V28.3099C193.954 28.2766 193.667 28.2599 193.413 28.2599C193.158 28.2267 192.887 28.21 192.601 28.21C190.561 28.21 188.904 28.8261 187.63 30.0582C186.388 31.257 185.767 33.1384 185.767 35.7026V48.3902H178.312ZM210.753 48.7899C208.013 48.7899 205.575 48.1904 203.441 46.9916C201.339 45.7928 199.666 44.1611 198.423 42.0964C197.212 39.9984 196.607 37.6175 196.607 34.9534C196.607 32.256 197.212 29.875 198.423 27.8103C199.666 25.7124 201.339 24.0807 203.441 22.9151C205.575 21.7163 208.013 21.1169 210.753 21.1169C213.461 21.1169 215.883 21.7163 218.017 22.9151C220.151 24.0807 221.824 25.6957 223.035 27.7604C224.246 29.8251 224.851 32.2228 224.851 34.9534C224.851 37.6175 224.246 39.9984 223.035 42.0964C221.824 44.1611 220.151 45.7928 218.017 46.9916C215.883 48.1904 213.461 48.7899 210.753 48.7899ZM210.753 42.3961C211.996 42.3961 213.111 42.0964 214.098 41.497C215.085 40.8976 215.867 40.0484 216.44 38.9495C217.014 37.8173 217.3 36.4852 217.3 34.9534C217.3 33.3882 217.014 32.0562 216.44 30.9573C215.867 29.8583 215.085 29.0092 214.098 28.4098C213.111 27.8103 211.996 27.5106 210.753 27.5106C209.511 27.5106 208.395 27.8103 207.408 28.4098C206.421 29.0092 205.623 29.8583 205.018 30.9573C204.445 32.0562 204.158 33.3882 204.158 34.9534C204.158 36.4852 204.445 37.8173 205.018 38.9495C205.623 40.0484 206.421 40.8976 207.408 41.497C208.395 42.0964 209.511 42.3961 210.753 42.3961Z" fill="#A3E635"/>
</svg>
